inDegrees=no
num_controls=7
num_derivatives=13
num_iterations=36
num_multipliers=7
num_parameters=0
num_slacks=7
num_states=26
objective=0.469348
objective_accelerations=0.060933
objective_balance=0.000676
objective_effort=0.016722
objective_height=0.382050
objective_ligament=0.008966
solver_duration=487.711716
status=Solve_Succeeded
success=true
DataType=double
version=3
OpenSimVersion=4.5
endheader
time	/jointset/ground_pelvis/pelvis_tilt/value	/jointset/ground_pelvis/pelvis_tx/value	/jointset/ground_pelvis/pelvis_ty/value	/jointset/hip_l/hip_flexion_l/value	/jointset/hip_l/hip_adduction_l/value	/jointset/hip_l/hip_rotation_l/value	/jointset/back/lumbar_extension/value	/jointset/patellofemoral_l/patellar_flexion_l/value	/jointset/knee_l/knee_flexion_l/value	/jointset/knee_l/knee_adduction_l/value	/jointset/knee_l/knee_rotation_l/value	/jointset/ankle_l/ankle_angle_l/value	/jointset/subtalar_l/subtalar_angle_l/value	/jointset/ground_pelvis/pelvis_tilt/speed	/jointset/ground_pelvis/pelvis_tx/speed	/jointset/ground_pelvis/pelvis_ty/speed	/jointset/hip_l/hip_flexion_l/speed	/jointset/hip_l/hip_adduction_l/speed	/jointset/hip_l/hip_rotation_l/speed	/jointset/back/lumbar_extension/speed	/jointset/patellofemoral_l/patellar_flexion_l/speed	/jointset/knee_l/knee_flexion_l/speed	/jointset/knee_l/knee_adduction_l/speed	/jointset/knee_l/knee_rotation_l/speed	/jointset/ankle_l/ankle_angle_l/speed	/jointset/subtalar_l/subtalar_angle_l/speed	/forceset/tau_hip_flexion_l	/forceset/tau_hip_adduction_l	/forceset/tau_hip_rotation_l	/forceset/tau_knee_flexion_l	/forceset/tau_ankle_angle_l	/forceset/tau_subtalar_angle_l	/forceset/tau_lumbar_extension	lambda_cid13_p0	lambda_cid13_p1	lambda_cid13_p2	lambda_cid13_p3	lambda_cid13_p4	lambda_cid13_p5	lambda_cid14_p0	/jointset/ground_pelvis/pelvis_tilt/accel	/jointset/ground_pelvis/pelvis_tx/accel	/jointset/ground_pelvis/pelvis_ty/accel	/jointset/hip_l/hip_flexion_l/accel	/jointset/hip_l/hip_adduction_l/accel	/jointset/hip_l/hip_rotation_l/accel	/jointset/back/lumbar_extension/accel	/jointset/patellofemoral_l/patellar_flexion_l/accel	/jointset/knee_l/knee_flexion_l/accel	/jointset/knee_l/knee_adduction_l/accel	/jointset/knee_l/knee_rotation_l/accel	/jointset/ankle_l/ankle_angle_l/accel	/jointset/subtalar_l/subtalar_angle_l/accel	gamma_cid13_p0	gamma_cid13_p1	gamma_cid13_p2	gamma_cid13_p3	gamma_cid13_p4	gamma_cid13_p5	gamma_cid14_p0
1.5	-0.342515405470973	0.05310131932136878	0.7984482568756359	0.9809779488109875	-0.3512900338922249	-0.06896975163236485	-0.3224319237851533	0.7812589910985873	0.7812589910985649	-0.02263119852481076	-0.1687336839440093	0.2605291359781139	0.1582947985145219	0.5038942588622111	0.2718653553170544	0.4658108483011871	-2.255909226081724	0.03605418959725076	-0.5966514236487115	0.6104265045303789	-2.104676835752752	-2.104676835752868	-0.2219775548826546	0.04361805605441581	-0.5039909038150098	-0.1508645328508584	-0.132559968367341	0.08413795610164372	-0.002398237998865544	-0.1185013807310246	-0.03244170280133717	-0.01842083253096863	0.1254753646267524	-36.43678082102721	14.82455997584982	-3.152263389849373	0.6246386047425895	-430.5046547791458	-20.87659903905062	-11.57991346662388	0.574011631212506	0.4729760952745565	-0.7164951578671503	-1.123921452309623	0.3804821357146128	-0.3252205925253565	1.466252856024941	-1.079851032605897	-1.079851032605865	-0.1373013852646288	0.2582923720058466	-0.5472611033440975	0.4036620062082537	4.950058415487262e-07	2.794672408303529e-07	-4.912577857292925e-06	-1.633258624556925e-07	9.579569900662009e-07	1.390518947060524e-06	6.424928918567823e-07
1.51	-0.3374478975793989	0.05584328743161261	0.8030696580706621	0.9583642526720287	-0.350912615616283	-0.07494818209980002	-0.3162561304142122	0.7601602904412994	0.7601602904413821	-0.02486433110156672	-0.1682844230102269	0.2554619108188562	0.1568034277488213	0.5095161241468014	0.2764865591156079	0.4583699346993831	-2.266509376295618	0.03942701688888163	-0.5989523785434443	0.6246368481154255	-2.114763202863673	-2.114763202863721	-0.2246392081187695	0.04626254869187035	-0.5093628244289669	-0.1473840286565757	-0.1281071686217258	0.08279578700570156	-0.001682295221275483	-0.1157259559024438	-0.03230260864442266	-0.01931137739757718	0.1217990873448747	-36.26884624935481	14.9603952552243	-2.920886857099768	0.7913929508969801	-427.5110384048399	-20.86294693078259	-12.43509408522987	0.54265101660589	0.4504232418215565	-0.7726094022007958	-0.9798926333608028	0.3159197744239371	-0.1695293826720432	1.384126878778646	-0.928145464718454	-0.9281454647080483	-0.3291652772519538	0.2709485640545628	-0.5184018037403485	0.3244925625702708	4.742392389600764e-07	6.935521331192367e-07	-4.743443827827445e-06	-9.888297922762166e-08	9.806228838458334e-07	1.658254959090942e-06	6.469180489212293e-07
1.52	-0.3323268956270884	0.05863021372377802	0.807613706141495	0.9356541888654323	-0.3505014217177382	-0.08094702140513117	-0.3099410932536159	0.7389697029301148	0.7389697029301715	-0.02712379380741468	-0.1678080329792193	0.2503437176008003	0.155347711612367	0.514593071012354	0.2808569917013682	0.4503402234627045	-2.275182759606749	0.04280931412201803	-0.6007331912271867	0.638275262461804	-2.123054206549933	-2.123054206549914	-0.2272435807335897	0.04904387550690579	-0.5141845155756909	-0.1437336070010231	-0.1236543688761619	0.0814536179096528	-0.0009663524431411096	-0.1129505310739186	-0.03216351448756574	-0.02020192226435424	0.1181228100629831	-36.09731986581724	15.09351319000922	-2.686688482210613	0.9202451445438552	-424.4573623067061	-20.93411772939124	-13.287809444386	0.4650279474050045	0.422821852715604	-0.8342546848420767	-0.7385680717570651	0.3823761240156807	-0.2211921503272586	1.351867008291315	-0.7207783476736304	-0.7207783476736406	-0.12584526100566	0.2856592075220044	-0.4372152098978778	0.4376454984621282	4.48373915167726e-07	1.092932395508361e-06	-4.549892207603491e-06	-3.503496791219523e-08	9.924909004692948e-07	1.896507669961035e-06	6.476485471186588e-07
1.53	-0.3271578458109944	0.06145947441104645	0.8120746267129291	0.9128669697384993	-0.3500563904738985	-0.08696190999421601	-0.3034928173077345	0.7177050087799666	0.7177050087800395	-0.02940849100219998	-0.1673036131832671	0.2451799100003076	0.1539292756987789	0.5191207023873622	0.2849408658168944	0.4417546730793194	-2.281929184149552	0.04619105649333305	-0.6021281119118854	0.6512609205085571	-2.129588825838421	-2.129588825838427	-0.2297064165775813	0.05189275885229251	-0.518497482045149	-0.1399394803156312	-0.1192457026225007	0.07998654937704318	-0.0001869951670044837	-0.1102926338965651	-0.03224124093687512	-0.02124466122184718	0.1144460958724282	-36.03285684413722	15.31719009969	-2.473458830214432	1.230802795359229	-421.7180288340591	-20.91285291134989	-14.13818740256823	0.4322518562291385	0.3930406046589865	-0.8838892572605322	-0.5928301970575643	0.3156506706786956	-0.08051529421195933	1.254064272353386	-0.5755626225750499	-0.575562622578682	-0.3080060254496702	0.2916560769391873	-0.4163278680013013	0.3526455973593338	4.170912000964441e-07	1.476688988628993e-06	-4.330396897198658e-06	2.818099199604656e-08	9.928861726143251e-07	2.103434373348283e-06	6.444534702698823e-07
1.54	-0.3219463954564323	0.06432794792220854	0.8164470549720924	0.8900222562558239	-0.3495776263309736	-0.09298712244346238	-0.2969182549674902	0.6963838166563784	0.6963838166563135	-0.03171811721148619	-0.1667692739179807	0.239975374634612	0.1525492509207978	0.5230731787095917	0.2886995564801002	0.432641761008671	-2.286681630752965	0.04955589394423397	-0.6027979632634164	0.6635325413347197	-2.134353801252469	-2.1343538012525	-0.2322293835957311	0.05502776935336844	-0.5223300686158807	-0.1360513798789802	-0.1148370363688186	0.0785194808444573	0.0005923621083395122	-0.1076347367192356	-0.03231896738619638	-0.02228740017930859	0.1107693816818985	-35.96420576326201	15.53830334825816	-2.257726537406467	1.503112554214295	-418.9119504027386	-20.97110531141844	-14.98703353844559	0.3499969368492837	0.3577851622512358	-0.9397270222947575	-0.3397724838788694	0.3789951399329005	-0.07617828369366682	1.209059564173218	-0.3668495727855658	-0.3668495727855779	-0.1378714958372928	0.3428846386598206	-0.3411392301529257	0.4564402487138594	3.574172888458565e-07	1.931969939384502e-06	-3.914459417736908e-06	1.125624079999884e-07	9.368249367128319e-07	2.242151468929027e-06	6.247514490438014e-07
1.55	-0.3166983025399351	0.06723236904955489	0.8207257762336934	0.8671401088862257	-0.3490652404314374	-0.09901692229687574	-0.2902245431117151	0.6750241303298364	0.6750241303295275	-0.03405206654742312	-0.1662031686157985	0.2347351580261987	0.1512087900150973	0.5264549375288997	0.2921283950142806	0.423022734984034	-2.289420549059659	0.05289005089769386	-0.6029707902265212	0.6750799610134113	-2.137273503757115	-2.137273503757116	-0.234643870150295	0.05827896411519546	-0.5256267136463537	-0.1320582776537299	-0.1104617772784555	0.07677739622433628	0.001413890708716098	-0.10523487562759	-0.03224611570950733	-0.02343757440566629	0.1071266582835976	-35.87470507315096	15.81615082521865	-2.066720452655455	1.774340206798167	-416.4022886001075	-21.00982023965259	-15.82862865384734	0.3187266988861675	0.3270484532884571	-0.9848041550366491	-0.1918153151362402	0.3060822287055395	0.04142724039511452	1.108102849082567	-0.208149443873962	-0.2081494438691954	-0.3054541700833185	0.3285839998416848	-0.3108422842963763	0.3680353510064438	2.65031781997375e-07	2.469659389154106e-06	-3.272186395666111e-06	2.213301103750614e-07	8.157159850186087e-07	2.302279233776195e-06	5.86030557122132e-07
1.56	-0.3114190997663779	0.07016940161310171	0.8249059444825479	0.8442403995713201	-0.3485204217112561	-0.1050425979913518	-0.2834192531232848	0.6536445232070697	0.6536445232071029	-0.03641260413467879	-0.165602081945586	0.2294645919385379	0.1499077181599614	0.5292951501248535	0.2952218437201936	0.4129311584595149	-2.290194019809151	0.05604245807736839	-0.6019731314691288	0.6858481678666876	-2.138337960444568	-2.138337960444539	-0.2375470340976146	0.06202404307296024	-0.528399964468918	-0.1281735697654622	-0.1060865181883287	0.07503531160388248	0.00223541931334714	-0.1028350145360883	-0.03217326403296054	-0.02458774863254135	0.1034839348851633	-35.78513014110032	16.09360947985535	-1.87521995878904	2.024883941100067	-413.8887561543796	-21.11894135177307	-16.6546750590047	0.2416876921783661	0.2907071965974712	-1.034237122271198	0.05331702756131343	0.3426451851755651	0.1579188604058429	1.053216999090191	0.004199590653034757	0.004199590653034789	-0.2356069743884412	0.4416614778474139	-0.2364603885714535	0.4347613813172501	6.314831258915445e-08	3.497639847795112e-06	-1.78082490679009e-06	4.183181798283924e-07	5.340613535043568e-07	2.176603033707499e-06	4.831404061302571e-07
